<svg width="123" height="123" viewBox="0 0 123 123" fill="none" xmlns="http://www.w3.org/2000/svg">
<mask id="mask0_869_265" style="mask-type:alpha" maskUnits="userSpaceOnUse" x="0" y="0" width="123" height="123">
<path d="M16.2275 7.77515H8.60254V106.9C8.60254 108.922 9.40588 110.862 10.8358 112.292C12.2658 113.722 14.2053 114.525 16.2275 114.525H115.353V106.9H16.2275V7.77515Z" fill="black"/>
<path d="M115.353 34.4626H88.665V42.0876H102.352L73.415 71.0245L57.0594 54.6308C56.705 54.2734 56.2833 53.9898 55.8187 53.7962C55.3541 53.6027 54.8558 53.503 54.3525 53.503C53.8492 53.503 53.3509 53.6027 52.8863 53.7962C52.4218 53.9898 52.0001 54.2734 51.6457 54.6308L23.8525 82.462L29.2282 87.8376L54.3525 62.7133L70.7082 79.107C71.0626 79.4644 71.4843 79.748 71.9488 79.9415C72.4134 80.1351 72.9117 80.2348 73.415 80.2348C73.9183 80.2348 74.4166 80.1351 74.8812 79.9415C75.3458 79.748 75.7675 79.4644 76.1219 79.107L107.728 47.4633V61.1501H115.353V34.4626Z" fill="black"/>
</mask>
<g mask="url(#mask0_869_265)">
<rect x="-12.3232" y="-18.7637" width="153.188" height="172.42" fill="#ffff"/>
</g>
</svg>
